<svg xmlns="http://www.w3.org/2000/svg" xmlns:xlink="http://www.w3.org/1999/xlink" width="500" zoomAndPan="magnify" viewBox="0 0 375 374.999991" height="500" preserveAspectRatio="xMidYMid meet" version="1.2"><defs><clipPath id="61f4781ef0"><path d="M 20.140625 12.710938 L 354.640625 12.710938 L 354.640625 222 L 20.140625 222 Z M 20.140625 12.710938 "/></clipPath><clipPath id="2dc651ac41"><path d="M 94 55 L 341 55 L 341 362.210938 L 94 362.210938 Z M 94 55 "/></clipPath></defs><g id="60b443b56a"><rect x="0" width="375" y="0" height="374.999991" style="fill:#ffffff;fill-opacity:1;stroke:none;"/><rect x="0" width="375" y="0" height="374.999991" style="fill:#fafafa;fill-opacity:1;stroke:none;"/><g clip-rule="nonzero" clip-path="url(#61f4781ef0)"><path style=" stroke:none;fill-rule:evenodd;fill:#f8b400;fill-opacity:1;" d="M 187.390625 12.804688 C 279.75 12.804688 354.640625 87.726562 354.640625 180.128906 C 354.640625 194.519531 352.816406 208.472656 349.410156 221.792969 C 349.769531 217.429688 349.964844 213.03125 349.964844 208.589844 C 349.964844 118.765625 277.175781 45.945312 187.386719 45.945312 C 97.597656 45.945312 24.816406 118.765625 24.816406 208.589844 C 24.816406 213.03125 25.011719 217.429688 25.371094 221.792969 C 21.960938 208.472656 20.140625 194.519531 20.140625 180.128906 C 20.140625 87.726562 95.027344 12.804688 187.390625 12.804688 Z M 187.390625 12.804688 "/></g><g clip-rule="nonzero" clip-path="url(#2dc651ac41)"><path style=" stroke:none;fill-rule:evenodd;fill:#005f9f;fill-opacity:1;" d="M 187.390625 55.023438 C 272.144531 55.023438 340.851562 123.761719 340.851562 208.589844 C 340.851562 293.421875 272.144531 362.121094 187.390625 362.121094 C 152.523438 362.121094 120.34375 350.464844 94.59375 330.84375 C 115.515625 342.417969 139.605469 349.039062 165.199219 349.039062 C 245.914062 349.039062 311.375 283.550781 311.375 202.804688 C 311.375 122.054688 246.074219 56.726562 165.476562 56.609375 C 172.613281 55.578125 179.941406 55.023438 187.390625 55.023438 Z M 187.390625 55.023438 "/></g><path style=" stroke:none;fill-rule:evenodd;fill:#bd111a;fill-opacity:1;" d="M 299.132812 217.589844 C 291.757812 285.097656 234.625 337.621094 165.199219 337.621094 C 90.785156 337.621094 30.480469 277.25 30.480469 202.804688 C 30.480469 175.375 38.679688 149.84375 52.789062 128.515625 C 46.488281 143.898438 42.960938 160.707031 42.960938 178.34375 C 42.960938 250.769531 101.644531 309.476562 174.039062 309.476562 C 232.761719 309.476562 282.445312 270.824219 299.128906 217.589844 Z M 299.132812 217.589844 "/><g style="fill:#f8b400;fill-opacity:1;"><g transform="translate(49.212329, 221.490762)"><path style="stroke:none" d="M 49.828125 -21.984375 L 49.828125 -13.328125 L 5.390625 -33.34375 L 5.390625 -40.078125 L 49.828125 -60.09375 L 49.828125 -51.4375 L 16.90625 -37.28125 L 16.90625 -36.1875 Z M 49.828125 -21.984375 "/></g></g><g style="fill:#005f9f;fill-opacity:1;"><g transform="translate(105.774984, 221.490762)"><path style="stroke:none" d="M 9.4375 10.84375 L 1.296875 10.84375 L 29.546875 -80.15625 L 37.6875 -80.15625 Z M 9.4375 10.84375 "/></g></g><g style="fill:#bd111a;fill-opacity:1;"><g transform="translate(146.78563, 221.490762)"><path style="stroke:none" d="M 19.703125 0 L 11.453125 0 L 11.453125 -75.796875 L 24.6875 -75.796875 L 47.65625 -11.609375 L 48.734375 -11.609375 L 71.703125 -75.796875 L 84.46875 -75.796875 L 84.46875 0 L 76.015625 0 L 76.015625 -61.859375 L 74.71875 -62.0625 L 52.3125 0 L 43.453125 0 L 21 -62.0625 L 19.703125 -61.859375 Z M 19.703125 0 "/></g></g><g style="fill:#f8b400;fill-opacity:1;"><g transform="translate(242.757078, 221.490762)"><path style="stroke:none" d="M 51.078125 -33.34375 L 6.6875 -13.328125 L 6.6875 -21.984375 L 39.609375 -36.1875 L 39.609375 -37.28125 L 6.6875 -51.4375 L 6.6875 -60.09375 L 51.078125 -40.078125 Z M 51.078125 -33.34375 "/></g></g></g></svg>